<svg xmlns="http://www.w3.org/2000/svg" viewBox="0 0 836.9 305.202">
  <defs>
    <style>
      .cls-1 {
        fill: #5c0a36;
      }
    </style>
  </defs>
  <g id="logo-long-ok" transform="translate(-533.341 -285.624)">
    <g id="Group_1_1_" transform="translate(-137.659 -106.375)">
      <g id="Group_24" data-name="Group 24">
        <path id="Path_31" data-name="Path 31" class="cls-1" d="M733.1,534.2c0,6.5-1.2,11.5-3.6,14.9a20.789,20.789,0,0,1-9.4,7.7,38.8,38.8,0,0,1-13.3,2.8c-5,.3-10,.4-15.2.4V694.5H671V415.2h20.7c10.3,0,18.3.9,23.9,2.6s9.7,3.9,12.3,6.5a14.584,14.584,0,0,1,4.5,8.4,63.79,63.79,0,0,1,.6,8.4v93.1Zm-20.7-93.1a13.651,13.651,0,0,0-1.1-6,6.705,6.705,0,0,0-3.5-3.1,17.992,17.992,0,0,0-6.4-1.1c-2.6-.1-5.9-.2-9.8-.2V544.5c2.6,0,5.1-.1,7.6-.2a25.244,25.244,0,0,0,6.6-1.1,10.227,10.227,0,0,0,4.7-3.1,8.958,8.958,0,0,0,1.8-6v-93Z"/>
        <path id="Path_32" data-name="Path 32" class="cls-1" d="M805.5,694.5H786L781.5,641H767.1l-3,53.5H743.3l19.2-248.2h22.1ZM780.4,624l-6-126.1L768.3,624Z"/>
        <path id="Path_33" data-name="Path 33" class="cls-1" d="M877.9,534.2H857.2V469.6q0-5.85-2.4-8.1a7.257,7.257,0,0,0-10.6,0q-2.4,2.25-2.4,8.1a283.959,283.959,0,0,0,1.6,31.8c1.1,9.7,2.5,18.6,4.2,26.8a166.284,166.284,0,0,0,6.1,22.3c2.3,6.7,4.5,12.8,6.5,18.5,1.6,4.5,3.4,9.6,5.4,15.5a216.94,216.94,0,0,1,5.9,20.9,264.243,264.243,0,0,1,4.7,28.3,319.063,319.063,0,0,1,1.9,37.6,26.557,26.557,0,0,1-2.4,11.7,22.641,22.641,0,0,1-6.5,8.1,26.953,26.953,0,0,1-9.1,4.6,36.8,36.8,0,0,1-20.8,0,26.95,26.95,0,0,1-9.1-4.6,23.759,23.759,0,0,1-6.5-8.1,26.559,26.559,0,0,1-2.4-11.7V606.7H842v64.6q0,5.85,2.4,8.1a7.257,7.257,0,0,0,10.6,0q2.4-2.25,2.4-8.1a300.762,300.762,0,0,0-2-36.6,254.954,254.954,0,0,0-5.1-27.8c-2.1-8-4.2-15.1-6.4-21.2s-4.3-11.7-6.1-16.8c-1.8-5-3.9-10.6-6.1-16.9a136.71,136.71,0,0,1-5.6-21.5c-1.5-8.1-2.6-17.2-3.5-27.2-.9-10.1-1.3-21.3-1.3-33.7a25.809,25.809,0,0,1,2.4-11.6,23.176,23.176,0,0,1,6.5-8,27.17,27.17,0,0,1,9.1-4.7,36.8,36.8,0,0,1,20.8,0,27.168,27.168,0,0,1,9.1,4.7,24.366,24.366,0,0,1,6.5,8c1.7,3.2,2.4,7.1,2.4,11.6v64.6Z"/>
        <path id="Path_34" data-name="Path 34" class="cls-1" d="M955.5,694.5H936L931.5,641H917.1l-3,53.5H893.3l19.2-248.2h22.1ZM930.4,624l-6-126.1L918.3,624Z"/>
        <path id="Path_35" data-name="Path 35" class="cls-1" d="M1027.9,671.2a26.557,26.557,0,0,1-2.4,11.7,22.64,22.64,0,0,1-6.5,8.1,26.954,26.954,0,0,1-9.1,4.6,36.8,36.8,0,0,1-20.8,0A26.949,26.949,0,0,1,980,691a23.759,23.759,0,0,1-6.5-8.1,26.558,26.558,0,0,1-2.4-11.7V580.7h20.7v90.5q0,5.85,2.4,8.1a7.257,7.257,0,0,0,10.6,0q2.4-2.25,2.4-8.1v-225h20.7Z"/>
        <path id="Path_36" data-name="Path 36" class="cls-1" d="M1089.9,461.7h-20.7v93.1h20.7v15.5h-20.7V679h20.7v15.5h-41.4V446.2h41.4Z"/>
        <path id="Path_37" data-name="Path 37" class="cls-1" d="M1205.8,672.7c0,5.5-1.2,9.7-3.5,12.7s-5.7,5.1-10.3,6.5a46.407,46.407,0,0,1-7.9,1.5q-4.65.6-12.9.9c-5.5.1-10.3.2-14.5.2h-12.9V446.2c4.4,0,8.9,0,13.3.1,4.5.1,9,.1,13.7.2q14.25.3,21,2.1a20.92,20.92,0,0,1,10.5,6.2c2.4,2.9,3.6,6.9,3.6,12.2V672.7Zm-20.7-205.8a3.779,3.779,0,0,0-2.9-3.9c-1.8-.6-7.8-1-17.8-1V678.7c10,0,15.9-.3,17.8-1a3.89,3.89,0,0,0,2.9-4Z"/>
        <path id="Path_38" data-name="Path 38" class="cls-1" d="M1267.9,461.7h-20.7v93.1h20.7v15.5h-20.7V679h20.7v15.5h-41.4V446.2h41.4Z"/>
        <path id="Path_39" data-name="Path 39" class="cls-1" d="M1345,415.2V694.5h-20.7V415.2Z"/>
        <path id="Path_40" data-name="Path 40" class="cls-1" d="M1430.3,672.7c0,5.5-1.2,9.7-3.5,12.7s-5.7,5.1-10.3,6.5a46.4,46.4,0,0,1-7.9,1.5q-4.65.6-12.9.9c-5.5.1-10.3.2-14.5.2h-12.9V446.2c4.4,0,8.9,0,13.3.1,4.5.1,9,.1,13.7.2q14.25.3,21,2.1a20.92,20.92,0,0,1,10.5,6.2c2.4,2.9,3.6,6.9,3.6,12.2V672.7Zm-20.7-205.8a3.779,3.779,0,0,0-2.9-3.9c-1.8-.6-7.8-1-17.8-1V678.7c10,0,15.9-.3,17.8-1a3.89,3.89,0,0,0,2.9-4Z"/>
        <path id="Path_41" data-name="Path 41" class="cls-1" d="M1507.9,694.5h-19.5L1484,641h-14.4l-3,53.5h-20.8L1465,446.3h22.1ZM1482.8,624l-6-126.1L1470.7,624Z"/>
      </g>
      <g id="Group_25" data-name="Group 25">
        <path id="Path_42" data-name="Path 42" class="cls-1" d="M788.4,399.3a7.506,7.506,0,0,1,5,1.6v-.2c0-1.1.5-1.7,1.4-1.7,1,0,1.5.5,1.5,1.4a8.459,8.459,0,0,1-.1,1.3,10.878,10.878,0,0,0-.1,1.8,10.368,10.368,0,0,0,.1,1.6,10.362,10.362,0,0,1,.1,1.6c0,1.1-.5,1.7-1.5,1.7a1.391,1.391,0,0,1-1.5-1.4v-1.5a2.616,2.616,0,0,0-1.6-2.3,6.818,6.818,0,0,0-3.5-1,5.837,5.837,0,0,0-3.5,1.1,3.28,3.28,0,0,0-1.4,2.6c0,1.9,1.3,3.1,4,3.4l2.6.4c5.1.7,7.6,2.8,7.6,6.3a6.133,6.133,0,0,1-2.5,5.2,10.088,10.088,0,0,1-6.5,2,10.537,10.537,0,0,1-6.5-2.1v.9c0,1.1-.5,1.6-1.5,1.6-1.1,0-1.7-.6-1.7-1.8,0,.2.1-.6.3-2.3a5.286,5.286,0,0,0,.1-1.3,12.307,12.307,0,0,0-.2-2,10.4,10.4,0,0,1-.2-1.5c0-1,.5-1.6,1.4-1.6a1.364,1.364,0,0,1,1.2.5,5.575,5.575,0,0,1,.3,2.4,3.843,3.843,0,0,0,2,3.2,9.493,9.493,0,0,0,5,1.2,5.721,5.721,0,0,0,3.6-1.1,3.244,3.244,0,0,0,1.4-2.8c0-2-1.6-3.2-4.9-3.6a19.2,19.2,0,0,1-7.1-1.8c-1.6-.9-2.4-2.4-2.4-4.7a6.257,6.257,0,0,1,2.4-5.1,11.1,11.1,0,0,1,6.7-2Z"/>
        <path id="Path_43" data-name="Path 43" class="cls-1" d="M821.5,409.4a7.835,7.835,0,0,1-.2,2.1c-.2.3-.6.4-1.3.4H805.7a1.549,1.549,0,0,0-.8.2.764.764,0,0,0-.2.5,8.343,8.343,0,0,0,2,5.6,6.463,6.463,0,0,0,5,2.2,6.625,6.625,0,0,0,3.6-1.1,4.6,4.6,0,0,0,2.1-2.7l.4-1.3a1.426,1.426,0,0,1,1.5-1.1,1.53,1.53,0,0,1,1.7,1.7c0,2-1,3.7-3,5.2a10.949,10.949,0,0,1-6.8,2.3,9.525,9.525,0,0,1-7.5-3.2c-1.9-2.1-2.8-5-2.8-8.5a12.956,12.956,0,0,1,3-8.9,9.976,9.976,0,0,1,17.6,6.6Zm-16.3-1.2c0,.4.3.6,1,.6H817q.9,0,.9-.6a5.386,5.386,0,0,0-1.8-4.1,5.756,5.756,0,0,0-4.2-1.8,6.856,6.856,0,0,0-4.6,1.8,5.357,5.357,0,0,0-2.1,4.1Z"/>
        <path id="Path_44" data-name="Path 44" class="cls-1" d="M831.7,401.4v1.2a7.317,7.317,0,0,1,6.3-3.3,7.221,7.221,0,0,1,5.1,1.8,5.974,5.974,0,0,1,2,4.6,4.722,4.722,0,0,1-1,3.2,3.225,3.225,0,0,1-2.6,1.2,2.792,2.792,0,0,1-1.8-.6,1.8,1.8,0,0,1-.7-1.5,2.106,2.106,0,0,1,.5-1.3,1.612,1.612,0,0,1,1.3-.6,1.76,1.76,0,0,1,.6.1,2.236,2.236,0,0,0,.3-1,2.8,2.8,0,0,0-1.1-2.2,5.116,5.116,0,0,0-7.6,2.2,17.418,17.418,0,0,0-.7,5.9v6.4c.1,1.7.6,2.6,1.4,2.6a5.018,5.018,0,0,0,1.2-.2,2.768,2.768,0,0,1,.9-.1,1.224,1.224,0,0,1,1.4,1.4c0,1-.6,1.6-1.8,1.6h-.2c-.4,0-1.1-.1-2-.2s-1.6-.2-2-.2a21.841,21.841,0,0,0-2.8.1l-2.5.2c-1.2,0-1.8-.5-1.8-1.6,0-.9.6-1.4,1.7-1.4h.7l.7.1a1.761,1.761,0,0,0,.6.1q1.2,0,1.2-2.1v-2.3l-.1-10.2c-.1-1.8-.5-2.7-1.4-2.7a4.142,4.142,0,0,0-1,.1,4.141,4.141,0,0,1-1,.1c-1,0-1.5-.5-1.5-1.4,0-1,.6-1.6,1.9-1.6a8.8,8.8,0,0,1,1.4.1,7.6,7.6,0,0,0,1.4.1,6.817,6.817,0,0,0,1.2-.1,2.221,2.221,0,0,1,.9-.1,1.659,1.659,0,0,1,.9,1.6Z"/>
        <path id="Path_45" data-name="Path 45" class="cls-1" d="M854.3,409.5V418c.1,1.3.6,2,1.2,2,.1,0,.5-.1,1.1-.2.1-.1.4-.1.7-.1,1.1,0,1.7.5,1.7,1.5a1.382,1.382,0,0,1-.6,1.1,2.3,2.3,0,0,1-1.4.4c-.5,0-1.2-.1-2.2-.2s-1.7-.2-2.2-.2a24.61,24.61,0,0,0-2.6.2c-1.2.1-2,.2-2.3.2q-1.8,0-1.8-1.5a1.326,1.326,0,0,1,1.5-1.5,5.383,5.383,0,0,1,1.1.1,4.905,4.905,0,0,0,1.1.1c.7,0,1.2-1,1.3-2.9V405.5c-.2-1.9-.6-2.8-1.4-2.8a5.757,5.757,0,0,0-1,.2,5.755,5.755,0,0,1-1,.2c-1.1,0-1.6-.5-1.6-1.4,0-1,.7-1.5,2-1.5h1.2c1,.1,1.6.2,1.8.2a5.385,5.385,0,0,0,1.1-.1,5.384,5.384,0,0,1,1.1-.1c.9,0,1.3.6,1.3,1.8v1c0,.2,0,1.2-.1,2.8C854.3,407,854.3,408.3,854.3,409.5Zm-2.4-11.7a2.4,2.4,0,1,1,1.8-.7A2.875,2.875,0,0,1,851.9,397.8Z"/>
        <path id="Path_46" data-name="Path 46" class="cls-1" d="M881.4,409.4a7.833,7.833,0,0,1-.2,2.1c-.2.3-.6.4-1.3.4H865.6a1.549,1.549,0,0,0-.8.2.764.764,0,0,0-.2.5,8.343,8.343,0,0,0,2,5.6,6.463,6.463,0,0,0,5,2.2,6.625,6.625,0,0,0,3.6-1.1,4.605,4.605,0,0,0,2.1-2.7l.4-1.3a1.426,1.426,0,0,1,1.5-1.1,1.53,1.53,0,0,1,1.7,1.7c0,2-1,3.7-3,5.2a10.949,10.949,0,0,1-6.8,2.3,9.525,9.525,0,0,1-7.5-3.2c-1.9-2.1-2.8-5-2.8-8.5a12.956,12.956,0,0,1,3-8.9,9.745,9.745,0,0,1,7.7-3.4,9.421,9.421,0,0,1,7,2.8A9.8,9.8,0,0,1,881.4,409.4ZM865,408.2c0,.4.3.6,1,.6h10.8q.9,0,.9-.6a5.386,5.386,0,0,0-1.8-4.1,5.756,5.756,0,0,0-4.2-1.8,6.856,6.856,0,0,0-4.6,1.8,5.357,5.357,0,0,0-2.1,4.1Z"/>
        <path id="Path_47" data-name="Path 47" class="cls-1" d="M906,399.3a7.477,7.477,0,0,1,6.7,3.5v-4.5a10.45,10.45,0,0,0-.1-2.2c-.2-.9-.6-1.4-1.3-1.4a4.142,4.142,0,0,0-1,.1,4.141,4.141,0,0,1-1,.1c-1.1,0-1.7-.5-1.7-1.4,0-1,.7-1.5,2.2-1.5a7.773,7.773,0,0,1,1.3.1c1,.1,1.5.1,1.5.1a5.738,5.738,0,0,0,1.2-.1,5.735,5.735,0,0,1,1.2-.1c.8,0,1.3.6,1.3,1.8v.5c0,.1-.1.9-.1,2.4,0,.2,0,1.3-.1,3.5-.1,1.5-.1,2.6-.1,3.4v11.9a13.125,13.125,0,0,0,.3,3.7,1.008,1.008,0,0,0,1.1.7,2.22,2.22,0,0,0,.9-.1,4.591,4.591,0,0,1,1-.1c1.1,0,1.7.5,1.7,1.5s-.7,1.5-2,1.5a8.17,8.17,0,0,1-1.4-.1,8.173,8.173,0,0,0-1.4-.1,5.81,5.81,0,0,0-1,.1,3.444,3.444,0,0,1-.9.1c-.8,0-1.2-.5-1.2-1.6v-1a8.189,8.189,0,0,1-6.9,3.2,9.226,9.226,0,0,1-7.4-3.3c-1.9-2.2-2.8-5.1-2.8-8.7a13.309,13.309,0,0,1,2.7-8.7,9.027,9.027,0,0,1,7.3-3.3Zm6.5,15.9a37.918,37.918,0,0,0,.2-3.8,32.511,32.511,0,0,0-.2-4.1,5.734,5.734,0,0,0-1.9-3.5,6.362,6.362,0,0,0-4.2-1.5,5.939,5.939,0,0,0-5,2.4,10.662,10.662,0,0,0-1.8,6.5c0,2.9.6,5.1,1.9,6.7a6.078,6.078,0,0,0,5.1,2.5,6.359,6.359,0,0,0,4.1-1.4,6.192,6.192,0,0,0,1.8-3.8Z"/>
        <path id="Path_48" data-name="Path 48" class="cls-1" d="M933.3,423.4a9.633,9.633,0,0,1-7.6-3.3c-1.9-2.2-2.8-5.1-2.8-8.8a12.957,12.957,0,0,1,2.9-8.8,9.7,9.7,0,0,1,7.7-3.3,9.807,9.807,0,0,1,7.7,3.2c1.9,2.1,2.8,5,2.8,8.7a12.957,12.957,0,0,1-2.9,8.8A9.59,9.59,0,0,1,933.3,423.4Zm.2-21.1a6.052,6.052,0,0,0-5,2.2,10.5,10.5,0,0,0-2,6.3v.6a10.778,10.778,0,0,0,1.8,6.6,5.816,5.816,0,0,0,5,2.4,6.316,6.316,0,0,0,5.2-2.4,10.9,10.9,0,0,0,1.9-6.7C940.3,405.3,938.1,402.3,933.5,402.3Z"/>
        <path id="Path_49" data-name="Path 49" class="cls-1" d="M960.6,407.8c0-1.2.7-1.9,2.2-2.1a4.068,4.068,0,0,0-1.5-2.5,5.816,5.816,0,0,0-3.3-.9,5.9,5.9,0,0,0-5,2.5,10.357,10.357,0,0,0-1.9,6.6,10.778,10.778,0,0,0,1.8,6.6,5.757,5.757,0,0,0,4.9,2.4,5.536,5.536,0,0,0,3.4-1.1,5.618,5.618,0,0,0,2-3.1c.3-1,.5-1.7.5-1.8a1.508,1.508,0,0,1,1.4-.9,2.106,2.106,0,0,1,1.3.5,1.9,1.9,0,0,1,.5,1.3,6.017,6.017,0,0,1-.7,2.7,12.994,12.994,0,0,1-1.7,2.6,9.048,9.048,0,0,1-6.9,2.8,9.459,9.459,0,0,1-7.4-3.2,12.455,12.455,0,0,1-2.8-8.5,13.231,13.231,0,0,1,2.9-8.9,9.776,9.776,0,0,1,7.7-3.4,9.235,9.235,0,0,1,6,2,6.2,6.2,0,0,1,2.4,5,4,4,0,0,1-.9,2.7,3.043,3.043,0,0,1-2.4,1.1,2.49,2.49,0,0,1-1.9-.7,2.715,2.715,0,0,1-.6-1.7Z"/>
        <path id="Path_50" data-name="Path 50" class="cls-1" d="M988.9,421.5v-1.4a8.138,8.138,0,0,1-7.1,3.3c-3.5,0-6-1.1-7.4-3.3a7.518,7.518,0,0,1-1-3.4V409c0-4.1-.4-6.2-1.3-6.2a3.444,3.444,0,0,0-.9.1c-.4,0-.7.1-.9.1-1.1,0-1.6-.5-1.6-1.5,0-.9.6-1.4,1.9-1.4a7.176,7.176,0,0,1,1.3.1,7.175,7.175,0,0,0,1.3.1,8.8,8.8,0,0,0,1.4-.1,3.75,3.75,0,0,1,.8-.1c.9,0,1.4.6,1.4,1.7v3.8l-.1,3.3v2.9a18.374,18.374,0,0,0,.6,5.6c.7,1.9,2.3,2.8,4.9,2.8a6.4,6.4,0,0,0,3.4-.9,5.122,5.122,0,0,0,2.1-2.3c.5-1.2.7-3.4.7-6.7v-5.4c-.2-1.4-.5-2.2-1.2-2.2H986c-1.1,0-1.6-.5-1.6-1.4q0-1.5,1.8-1.5a5.737,5.737,0,0,1,1.2.1,6.817,6.817,0,0,0,1.2.1,5.382,5.382,0,0,0,1.1-.1,4.907,4.907,0,0,1,1.1-.1c.9,0,1.3.5,1.3,1.4a2.787,2.787,0,0,1-.1,1,34.146,34.146,0,0,0-.2,5.1v10c.1,1.6.6,2.4,1.3,2.4a3.444,3.444,0,0,0,.9-.1,3.446,3.446,0,0,1,.9-.1,1.326,1.326,0,0,1,1.5,1.5c0,1-.6,1.5-1.9,1.5a5.737,5.737,0,0,1-1.2-.1,10.335,10.335,0,0,0-1.4-.1,4.4,4.4,0,0,0-.9.1,3.445,3.445,0,0,1-.9.1C989.3,422.8,988.9,422.3,988.9,421.5Z"/>
        <path id="Path_51" data-name="Path 51" class="cls-1" d="M1005.1,401.4v1.3a10.455,10.455,0,0,1,3.1-2.7,7.983,7.983,0,0,1,3.6-.7,7.071,7.071,0,0,1,6.5,3.4,10.7,10.7,0,0,1,3.1-2.7,9.166,9.166,0,0,1,4-.8,10.071,10.071,0,0,1,4.6,1.1,6.8,6.8,0,0,1,3.1,3.4,13.689,13.689,0,0,1,.6,4.7v10.1c.1,1.1.5,1.6,1.2,1.6a5.075,5.075,0,0,0,.9-.2,5.072,5.072,0,0,1,.9-.2c1,0,1.6.5,1.6,1.4,0,1-.6,1.6-1.8,1.6-.5,0-1.1-.1-2-.2s-1.6-.2-2.1-.2-1.3.1-2.2.2c-1,.1-1.7.2-2.2.2-1.3,0-1.9-.5-1.9-1.6a1.265,1.265,0,0,1,1.4-1.4,4.4,4.4,0,0,1,.9.1,1.484,1.484,0,0,0,.7.1,1.053,1.053,0,0,0,1-.8,24.715,24.715,0,0,0,.2-3.8v-5.7a15.368,15.368,0,0,0-.5-4.5,3.885,3.885,0,0,0-1.8-2.2,6.109,6.109,0,0,0-3-.8c-2.1,0-3.6.7-4.4,2.2-.7,1.2-1,3.2-1,6.1v3.2a47.832,47.832,0,0,0,.2,5.3c.1.7.5,1.1,1.1,1.1a2.814,2.814,0,0,0,.8-.1,2.485,2.485,0,0,1,.8-.1,1.5,1.5,0,0,1,1.1.4,1.284,1.284,0,0,1,.4,1q0,1.5-2.1,1.5c-.5,0-1.1-.1-2-.2s-1.6-.2-2-.2a18.321,18.321,0,0,0-2.1.2,16.833,16.833,0,0,1-2,.2q-1.8,0-1.8-1.5a1.224,1.224,0,0,1,1.4-1.4,1.949,1.949,0,0,1,.8.1,5.074,5.074,0,0,0,.9.2c.7,0,1.1-.8,1.1-2.3l.1-2.1v-6.6c0-2.6-.4-4.4-1.1-5.5-.7-1-2-1.5-3.8-1.5a5.01,5.01,0,0,0-4.5,2.2c-.9,1.2-1.3,3.2-1.3,6.2v8.1c.1,1,.5,1.5,1,1.5a2.944,2.944,0,0,0,.9-.3c.1,0,.1,0,.3-.1h.3q1.8,0,1.8,1.5c0,1-.7,1.4-2,1.4a14.158,14.158,0,0,1-1.9-.1c-1-.1-1.9-.2-2.6-.2a18.157,18.157,0,0,0-2,.1c-1.3.1-2.1.2-2.3.2q-1.8,0-1.8-1.5c0-.9.6-1.4,1.7-1.4h.6l1.1.2h.2c.8,0,1.3-.7,1.3-2.2v-9.5a40.6,40.6,0,0,0-.2-4.8,1.009,1.009,0,0,0-1.1-.9c-.1,0-.5.1-1.3.2a1.953,1.953,0,0,1-.7.1c-1.1,0-1.7-.5-1.7-1.4q0-1.5,1.8-1.5a8.17,8.17,0,0,1,1.4.1,8.635,8.635,0,0,0,1.5.1h.8l1.1-.2h.1a1.418,1.418,0,0,1,1.2,1.5Z"/>
        <path id="Path_52" data-name="Path 52" class="cls-1" d="M1060.5,409.4a7.83,7.83,0,0,1-.2,2.1c-.2.3-.6.4-1.3.4h-14.3a1.549,1.549,0,0,0-.8.2.764.764,0,0,0-.2.5,8.342,8.342,0,0,0,2,5.6,6.463,6.463,0,0,0,5,2.2,6.625,6.625,0,0,0,3.6-1.1,4.6,4.6,0,0,0,2.1-2.7l.4-1.3a1.426,1.426,0,0,1,1.5-1.1,1.53,1.53,0,0,1,1.7,1.7c0,2-1,3.7-3,5.2a10.949,10.949,0,0,1-6.8,2.3,9.525,9.525,0,0,1-7.5-3.2c-1.9-2.1-2.8-5-2.8-8.5a12.956,12.956,0,0,1,3-8.9,9.976,9.976,0,0,1,17.6,6.6Zm-16.3-1.2c0,.4.3.6,1,.6H1056q.9,0,.9-.6a5.384,5.384,0,0,0-1.8-4.1,5.756,5.756,0,0,0-4.2-1.8,6.856,6.856,0,0,0-4.6,1.8,5.062,5.062,0,0,0-2.1,4.1Z"/>
        <path id="Path_53" data-name="Path 53" class="cls-1" d="M1070.7,401.5v1.3a8.638,8.638,0,0,1,7.2-3.4,9.29,9.29,0,0,1,4.6,1.2,6.611,6.611,0,0,1,2.9,3.1,11.237,11.237,0,0,1,.6,4v10.9c.1,1,.6,1.5,1.2,1.5a4.906,4.906,0,0,0,1.1-.1,3.443,3.443,0,0,1,.9-.1,1.367,1.367,0,0,1,1.4,1.4,1.605,1.605,0,0,1-.5,1.1,2.01,2.01,0,0,1-1.3.4c-.4,0-1.1-.1-2.1-.2s-1.9-.2-2.7-.2a10.319,10.319,0,0,0-1.9.1q-2.25.3-2.4.3c-1.2,0-1.8-.5-1.8-1.6,0-.9.5-1.4,1.6-1.4a2.487,2.487,0,0,1,.8.1c.6.1.9.2,1.1.2.7,0,1.1-.8,1.2-2.5v-8.4a21.62,21.62,0,0,0-.2-3.3,5.452,5.452,0,0,0-1.7-2.7,5.676,5.676,0,0,0-3.4-1,5.742,5.742,0,0,0-5.2,2.6c-.7,1.2-1.1,3.2-1.1,6v6a8.235,8.235,0,0,0,.3,2.7.963.963,0,0,0,1,.7,5.756,5.756,0,0,0,1-.2,5.759,5.759,0,0,1,1-.2c.9,0,1.4.5,1.4,1.5s-.6,1.5-1.8,1.5c-.2,0-1-.1-2.3-.3a15.484,15.484,0,0,0-2.2-.1c-.6,0-1.5.1-2.5.2-1.3.1-2.1.2-2.2.2-1.3,0-1.9-.5-1.9-1.5s.5-1.4,1.5-1.4a2.816,2.816,0,0,1,.8.1,4.867,4.867,0,0,0,1.2.1c.9,0,1.4-.9,1.4-2.6V405.4a6.987,6.987,0,0,0-.4-2.1,1,1,0,0,0-1-.6,3.445,3.445,0,0,0-.9.1,3.446,3.446,0,0,1-.9.1c-1.1,0-1.6-.5-1.6-1.4,0-1,.7-1.5,2-1.5h.4l1.7.2a5.284,5.284,0,0,0,1.3-.1,10.9,10.9,0,0,1,1.2-.1,1.3,1.3,0,0,1,1.2,1.5Z"/>
        <path id="Path_54" data-name="Path 54" class="cls-1" d="M1105,416.4v-2.9c0-1.2.6-1.8,1.6-1.8s1.6.7,1.6,2.1c0,3.3-.4,5.6-1.3,6.8-1.1,1.7-3,2.6-5.6,2.6-2.4,0-4.1-.8-5.1-2.3-.7-1.1-1.1-3-1.1-5.7V404.4a.8.8,0,0,0-.9-.9h-1.5a1.656,1.656,0,0,1-1.2-.5,1.6,1.6,0,0,1,1.1-2.7h1.8c.5,0,.8-.3.8-.9v-4.6c0-1.1.6-1.7,1.8-1.7,1.1,0,1.6.6,1.6,1.7v4.8c0,.5.3.7.8.7h4.9c1.1,0,1.7.5,1.7,1.6s-.6,1.7-1.8,1.7h-5q-.6,0-.6.9v11.1c0,3.2,1,4.7,3.1,4.7Q1104.85,420.15,1105,416.4Z"/>
        <path id="Path_55" data-name="Path 55" class="cls-1" d="M1129.8,423.2c-2.5,0-4-1.1-4.5-3.2-1.5,2.2-3.9,3.4-7.2,3.4a8.749,8.749,0,0,1-5.8-1.8,6.085,6.085,0,0,1-2.2-4.8,5.929,5.929,0,0,1,3.2-5.5,8.786,8.786,0,0,1,2.1-.9c.6-.1,1.8-.3,3.5-.5,2.5-.3,4.2-.6,4.9-1.1a2.883,2.883,0,0,0,1.1-2.7,3.473,3.473,0,0,0-1.3-2.9,5.524,5.524,0,0,0-3.6-1.1,7.579,7.579,0,0,0-3.8,1.1c-.5.3-.7.6-.7.9,0,.1.1.3.4.5a1.755,1.755,0,0,1,.6,1.5,1.8,1.8,0,0,1-.7,1.5,2.271,2.271,0,0,1-1.6.6,2.973,2.973,0,0,1-2-.8,2.438,2.438,0,0,1-.8-2,5.1,5.1,0,0,1,2.5-4.3,10.233,10.233,0,0,1,6.1-1.8c5.5,0,8.2,2.6,8.2,7.9v9.1a14.328,14.328,0,0,0,.1,2.6c.2,1,.7,1.6,1.5,1.6,1,0,1.6-1,1.6-2.9v-2.2a1.224,1.224,0,0,1,1.4-1.4c1,0,1.5.7,1.5,2.2V419C1134.4,421.7,1132.8,423.2,1129.8,423.2Zm-5-9V411a8,8,0,0,1-2.1,1.3,17.6,17.6,0,0,1-3.9.6c-3.4.3-5.1,1.6-5.1,3.8a3.424,3.424,0,0,0,1.2,2.7,4.935,4.935,0,0,0,3.4,1,6.389,6.389,0,0,0,4.7-1.6A6.025,6.025,0,0,0,1124.8,414.2Z"/>
        <path id="Path_56" data-name="Path 56" class="cls-1" d="M1142.9,403.8v14c0,1.5.4,2.3,1.2,2.3a8.916,8.916,0,0,0,1.1-.2,2.636,2.636,0,0,1,.7-.1,1.326,1.326,0,0,1,1.5,1.5q0,1.5-1.8,1.5c-.5,0-1.2-.1-2.3-.2-1-.1-1.9-.2-2.4-.2s-1.2.1-2.2.2-1.7.2-2.1.2h-.2c-1.3,0-1.9-.5-1.9-1.6,0-.9.5-1.4,1.5-1.4h.3c.2,0,.3.1.4.1a13.182,13.182,0,0,0,1.3.3.9.9,0,0,0,1-.7,22.413,22.413,0,0,0,.2-3.6V397.7c0-.9-.1-1.5-.1-1.8a1.2,1.2,0,0,0-1.3-1c-.1,0-.5.1-1.2.2a2.486,2.486,0,0,1-.8.1c-1,0-1.5-.5-1.5-1.4q0-1.5,1.8-1.5h.9l1.1.1a5.738,5.738,0,0,0,1.2.1,8.174,8.174,0,0,0,1.4-.1,7.175,7.175,0,0,1,1.3-.1c.7,0,1,.4,1,1.3v.7C1143,396.3,1142.9,399.6,1142.9,403.8Z"/>
      </g>
    </g>
  </g>
</svg>
